<svg xmlns="http://www.w3.org/2000/svg" viewBox="700 700 2600 2600">
  <defs>
    <clipPath id="bite">
      <!-- Outer box minus bite mark -->
      <path d="
        M 700 700 h 2600 v 2600 H 700 Z
        M 1600 800 h 400
        c 8 200, 16 201, 25 201
        c -16 21, -25 46, -25 74
        c 0 69, 56 125, 125 125
        h 3
        c -17 29, -28 63, -28 100
        c 0 111, 89 200, 200 200
        c 40 0, 77 -12, 108 -32
        c 18 48, 63 82, 117 82
        c 26 0, 50 -8, 70 -22
        c 3 23, 5 47, 305 72
        V 800 Z
      "/>
    </clipPath>
  </defs>

  <g clip-path="url(#bite)">
    <!-- Cup body -->
    <path fill="#f5f5dc" d="
      M 1685 3090 h 644
      c 110 0, 202 -94, 215 -219
      l 185 -1794
      H 1285
      l 185 1794
      c 13 125, 105 219, 215 219
    "/>
    <!-- Coffee surface -->
    <path fill="#1e1610" d="
      M 2671 1077 v -97
      L 1346 910 v 167 h 1325
    "/>
    <!-- Coffee fill -->
    <path fill="#8b4513" d="
      M 2681 1537 H 1333
      l 108 1056 h 1131 l 109 -1056
    "/>
    <!-- Cup highlight -->
    <path fill="#f8e5c8" d="
      M 2228 3090 h 102
      c 110 0, 202 -94, 215 -219
      l 185 -1794 h -102
      l -185 1794
      c -13 125, -105 219, -215 219
    "/>
    <!-- Coffee shadow -->
    <path fill="#5c4937" d="
      M 2580 1537 l -108 1056
      h 101 l 108 -1056 h -101
    "/>
    <!-- Cup rim -->
    <path fill="#453024" d="
      M 2785 1205 H 1228 v -128 h 1557 v 128
    "/>
  </g>
</svg> 